<?xml version="1.0" encoding="UTF-8" standalone="no"?>
<!-- Created with Inkscape (http://www.inkscape.org/) -->

<svg
   width="200mm"
   height="200mm"
   viewBox="0 0 200 200"
   version="1.1"
   id="svg5"
   inkscape:version="1.2.1 (9c6d41e410, 2022-07-14)"
   sodipodi:docname="wave_sentry_cannon.svg"
   xmlns:inkscape="http://www.inkscape.org/namespaces/inkscape"
   xmlns:sodipodi="http://sodipodi.sourceforge.net/DTD/sodipodi-0.dtd"
   xmlns="http://www.w3.org/2000/svg"
   xmlns:svg="http://www.w3.org/2000/svg">
  <sodipodi:namedview
     id="namedview7"
     pagecolor="#4c4c4c"
     bordercolor="#ffffff"
     borderopacity="0.24705882"
     inkscape:showpageshadow="false"
     inkscape:pageopacity="0"
     inkscape:pagecheckerboard="true"
     inkscape:deskcolor="#252525"
     inkscape:document-units="mm"
     showgrid="false"
     showborder="true"
     inkscape:zoom="1.2938725"
     inkscape:cx="371.3658"
     inkscape:cy="203.26578"
     inkscape:window-width="2560"
     inkscape:window-height="1369"
     inkscape:window-x="-8"
     inkscape:window-y="-8"
     inkscape:window-maximized="1"
     inkscape:current-layer="layer1" />
  <defs
     id="defs2" />
  <g
     inkscape:label="Layer 1"
     inkscape:groupmode="layer"
     id="layer1">
    <path
       id="path8558"
       style="fill:#ffffff;fill-opacity:1;stroke:#666666;stroke-width:2.5;stroke-linecap:round;stroke-linejoin:round"
       d="M 100.0001 50.000049 A 50 50 0 0 0 50.000049 100.0001 A 50 50 0 0 0 100.0001 150.00015 A 50 50 0 0 0 150.00015 100.0001 A 50 50 0 0 0 100.0001 50.000049 z M 100.0001 65.000167 A 35 35 0 0 1 135.00003 100.0001 A 35 35 0 0 1 100.0001 135.00003 A 35 35 0 0 1 65.000167 100.0001 A 35 35 0 0 1 100.0001 65.000167 z " />
    <circle
       style="fill:#ffffff;stroke:#666666;stroke-width:2.5;stroke-linecap:round;stroke-linejoin:round;stroke-opacity:1;fill-opacity:1"
       id="path1325"
       cx="100"
       cy="100"
       r="25" />
  </g>
</svg>
